<svg width="48" height="48" viewBox="0 0 48 48" fill="none" xmlns="http://www.w3.org/2000/svg">
<path d="M35.2498 41.6L22.3498 28.6C21.5831 28.8667 20.8165 29.0833 20.0498 29.25C19.2831 29.4167 18.4998 29.5 17.6998 29.5C14.4637 29.5 11.713 28.3722 9.4477 26.1167C7.18244 23.8611 6.0498 21.1222 6.0498 17.9C6.0498 16.8667 6.18577 15.8602 6.4577 14.8806C6.72964 13.901 7.11034 12.9741 7.5998 12.1L14.8498 19.35L19.4498 15.05L11.9998 7.6C12.8636 7.09473 13.7796 6.70175 14.7477 6.42105C15.7158 6.14035 16.6998 6 17.6998 6C21.0054 6 23.8151 7.15695 26.129 9.47085C28.4429 11.7847 29.5998 14.5944 29.5998 17.9C29.5998 18.7 29.5165 19.4833 29.3498 20.25C29.1831 21.0167 28.9665 21.7833 28.6998 22.55L41.6498 35.45C42.0165 35.8152 42.1998 36.2565 42.1998 36.7739C42.1998 37.2913 42.0165 37.7333 41.6498 38.1L37.8498 41.6C37.4933 41.9667 37.0625 42.15 36.5574 42.15C36.0523 42.15 35.6165 41.9667 35.2498 41.6ZM36.6498 38.75L38.6498 36.75L24.9998 23.1C25.5331 22.4 25.9331 21.575 26.1998 20.625C26.4665 19.675 26.5998 18.7667 26.5998 17.9C26.5998 15.4 25.6748 13.2833 23.8248 11.55C21.9748 9.81667 19.8665 8.93333 17.4998 8.9L22.5498 14.05C22.8498 14.35 22.9998 14.7167 22.9998 15.15C22.9998 15.5833 22.8498 15.95 22.5498 16.25L15.9498 22.45C15.6498 22.75 15.2831 22.9 14.8498 22.9C14.4165 22.9 14.0498 22.75 13.7498 22.45L8.8998 17.65C8.9998 20.2167 9.91094 22.3333 11.6332 24C13.3555 25.6667 15.3777 26.5 17.6998 26.5C18.5331 26.5 19.4165 26.3667 20.3498 26.1C21.2831 25.8333 22.0998 25.4333 22.7998 24.9L36.6498 38.75Z" fill="white"/>
</svg>
