<svg width="48" height="48" viewBox="0 0 48 48" fill="none" xmlns="http://www.w3.org/2000/svg">
<path d="M7.49125 34C7.06375 34 6.70833 33.8554 6.425 33.5663C6.14167 33.2771 6 32.9187 6 32.4913C6 32.0638 6.14458 31.7083 6.43375 31.425C6.72295 31.1417 7.08128 31 7.50875 31C7.93625 31 8.29167 31.1446 8.575 31.4337C8.85833 31.7229 9 32.0813 9 32.5087C9 32.9362 8.85542 33.2917 8.56625 33.575C8.27705 33.8583 7.91872 34 7.49125 34ZM7.49125 25.5C7.06375 25.5 6.70833 25.3554 6.425 25.0663C6.14167 24.7771 6 24.4187 6 23.9913C6 23.5638 6.14458 23.2083 6.43375 22.925C6.72295 22.6417 7.08128 22.5 7.50875 22.5C7.93625 22.5 8.29167 22.6446 8.575 22.9337C8.85833 23.2229 9 23.5813 9 24.0087C9 24.4362 8.85542 24.7917 8.56625 25.075C8.27705 25.3583 7.91872 25.5 7.49125 25.5ZM7.49125 17C7.06375 17 6.70833 16.8554 6.425 16.5663C6.14167 16.2771 6 15.9187 6 15.4913C6 15.0638 6.14458 14.7083 6.43375 14.425C6.72295 14.1417 7.08128 14 7.50875 14C7.93625 14 8.29167 14.1446 8.575 14.4337C8.85833 14.7229 9 15.0813 9 15.5087C9 15.9362 8.85542 16.2917 8.56625 16.575C8.27705 16.8583 7.91872 17 7.49125 17ZM14.5 34V31H42V34H14.5ZM14.5 25.5V22.5H42V25.5H14.5ZM14.5 17V14H42V17H14.5Z" fill="white"/>
</svg>
