<svg width="48" height="48" viewBox="0 0 48 48" fill="none" xmlns="http://www.w3.org/2000/svg">
<path d="M42 13.85V39C42 39.8 41.7 40.5 41.1 41.1C40.5 41.7 39.8 42 39 42H9C8.2 42 7.5 41.7 6.9 41.1C6.3 40.5 6 39.8 6 39V9C6 8.2 6.3 7.5 6.9 6.9C7.5 6.3 8.2 6 9 6H34.15L42 13.85ZM39 15.2L32.8 9H9V39H39V15.2ZM24 35.75C25.4333 35.75 26.6583 35.2417 27.675 34.225C28.6917 33.2083 29.2 31.9833 29.2 30.55C29.2 29.1167 28.6917 27.8917 27.675 26.875C26.6583 25.8583 25.4333 25.35 24 25.35C22.5667 25.35 21.3417 25.8583 20.325 26.875C19.3083 27.8917 18.8 29.1167 18.8 30.55C18.8 31.9833 19.3083 33.2083 20.325 34.225C21.3417 35.2417 22.5667 35.75 24 35.75ZM11.65 18.8H29.55V11.65H11.65V18.8ZM9 15.2V39V9V15.2Z" fill="white"/>
</svg>
