<svg width="48" height="48" viewBox="0 0 48 48" fill="none" xmlns="http://www.w3.org/2000/svg">
<path d="M5.4956 36C4.53187 36 3.70833 35.6569 3.025 34.9706C2.34167 34.2843 2 33.4593 2 32.4956C2 31.5319 2.34157 30.7083 3.0247 30.025C3.70783 29.3417 4.52905 29 5.48835 29C5.66278 29 5.83333 29.0083 6 29.025C6.16667 29.0417 6.38333 29.0833 6.65 29.15L16.65 19.15C16.5833 18.8833 16.5417 18.6667 16.525 18.5C16.5083 18.3333 16.5 18.1628 16.5 17.9884C16.5 17.029 16.8431 16.2078 17.5294 15.5247C18.2157 14.8416 19.0407 14.5 20.0044 14.5C20.9681 14.5 21.7917 14.8439 22.475 15.5317C23.1583 16.2195 23.5 17.0463 23.5 18.0122C23.5 18.0707 23.45 18.45 23.35 19.15L28.85 24.65C29.1167 24.5833 29.3333 24.5417 29.5 24.525C29.6667 24.5083 29.8333 24.5 30 24.5C30.1667 24.5 30.3333 24.5083 30.5 24.525C30.6667 24.5417 30.8833 24.5833 31.15 24.65L39.15 16.65C39.0833 16.3833 39.0417 16.1667 39.025 16C39.0083 15.8333 39 15.6628 39 15.4883C39 14.529 39.3432 13.7078 40.0295 13.0247C40.7157 12.3416 41.5407 12 42.5045 12C43.4682 12 44.2917 12.3431 44.975 13.0294C45.6583 13.7157 46 14.5407 46 15.5044C46 16.4681 45.6584 17.2917 44.9753 17.975C44.2922 18.6583 43.4709 19 42.5116 19C42.3372 19 42.1667 18.9917 42 18.975C41.8333 18.9583 41.6167 18.9167 41.35 18.85L33.35 26.85C33.4167 27.1167 33.4583 27.3333 33.475 27.5C33.4917 27.6667 33.5 27.8372 33.5 28.0116C33.5 28.9709 33.1569 29.7922 32.4706 30.4753C31.7843 31.1584 30.9593 31.5 29.9956 31.5C29.0319 31.5 28.2083 31.1584 27.525 30.4753C26.8417 29.7922 26.5 28.9709 26.5 28.0116C26.5 27.8372 26.5083 27.6667 26.525 27.5C26.5417 27.3333 26.5833 27.1167 26.65 26.85L21.15 21.35C20.8833 21.4167 20.6667 21.4583 20.5 21.475C20.3333 21.4917 20.1625 21.5 19.9875 21.5C19.9292 21.5 19.55 21.45 18.85 21.35L8.85 31.35C8.91667 31.6167 8.95833 31.8333 8.975 32C8.99167 32.1667 9 32.3372 9 32.5116C9 33.4709 8.65685 34.2922 7.97055 34.9753C7.28428 35.6584 6.4593 36 5.4956 36Z" fill="white"/>
</svg>
